<?xml version="1.0" encoding="UTF-8"?>
<svg width="166px" height="521px" viewBox="0 0 166 521" version="1.1" xmlns="http://www.w3.org/2000/svg" xmlns:xlink="http://www.w3.org/1999/xlink">
    <title>Group</title>
    <g id="Page-1" stroke="none" stroke-width="1" fill="none" fill-rule="evenodd">
        <g id="Group" transform="translate(0.694690, 0.000022)" fill-rule="nonzero">
            <polygon id="Path" fill="#FFB6B6" points="126.46131 509.447978 114.66031 509.446978 109.04631 463.927978 126.46431 463.927978"></polygon>
            <path d="M129.47145,520.887078 L91.41908,520.885668 L91.41908,520.404368 C91.4196543,512.224748 98.0504592,505.594028 106.23008,505.593558 L106.23102,505.593558 L129.47211,505.594498 L129.47145,520.887078 Z" id="Path" fill="#2F2E41"></path>
            <polygon id="Path" fill="#FFB6B6" points="36.80831 509.057978 25.40731 506.009978 31.74131 460.584978 48.56731 465.083978"></polygon>
            <path d="M36.76075,520.887078 L0,511.056978 L0.12432,510.591978 C2.23762208,502.690048 10.3561299,497.997028 18.25832,500.109358 L18.25923,500.109598 L40.71142,506.113598 L36.76075,520.887078 Z" id="Path" fill="#2F2E41"></path>
            <polygon id="Path" fill="#2F2E41" points="133.25131 254.345978 143.13631 265.829978 130.35231 499.205978 103.04431 499.205978 89.27631 319.631978 46.58931 504.022978 18.20031 497.059978 44.01331 262.859978"></polygon>
            <path d="M50.61274,103.675498 L77.80216,90.0379784 L119.61471,90.7729784 L155.59642,109.184978 L135.12459,211.426228 L143.96787,264.734818 L143.96781,264.734818 C109.787712,273.451314 74.0032372,273.745853 39.68429,265.593168 L39.41051,265.528168 C39.41051,265.528168 59.73471,193.413468 51.08267,171.406278 L50.61274,103.675498 Z" id="Path" fill="#E4E4E4"></path>
            <path d="M129.2724,49.1845484 C129.209312,32.193485 115.401002,18.4616121 98.4098508,18.4929973 C81.4187001,18.5244903 67.6613009,32.3073686 67.6613009,49.2985484 C67.6613009,66.2897282 81.4187001,80.0726066 98.4098508,80.1040996 C115.401002,80.1354848 129.209312,66.4036119 129.2724,49.4125484 C129.2724,49.3365551 129.2724,49.2605551 129.2724,49.1845484 Z" id="Path" fill="#FFB6B6"></path>
            <path d="M84.67222,31.5822384 C86.2677545,30.0803489 88.3692496,29.2326042 90.56031,29.2069784 C93.85151,29.1000484 98.7829,30.2688084 100.88157,32.9443784 C102.56831,35.0947484 102.64899,38.0532884 102.65544,40.7862784 L102.67324,48.3290184 C102.67852,50.5605284 102.70566,52.8872684 103.7195,54.8752284 C104.73334,56.8631884 107.0606,58.3731184 109.18674,57.6954284 C111.70888,56.8915184 112.81794,53.5393684 115.39552,52.9365984 C117.33133,52.4839084 119.31976,53.8984884 120.16594,55.6974384 C120.880549,57.5622243 121.117403,59.5761301 120.85494,61.5558284 C120.61094,65.5053484 114.94641,67.0721384 114.14442,70.9470684 C113.68042,73.1884784 112.05612,77.6597584 114.14442,76.7226784 C123.77042,75.7600784 127.99557,70.1375984 132.40125,64.8448784 L142.33776,52.9077784 C143.472547,51.7225671 144.344593,50.3113361 144.89696,48.7662284 C145.143376,47.683865 145.231833,46.5715337 145.15958,45.4638284 C145.1054,42.4968284 145.02486,39.5306384 144.91796,36.5652584 C144.82456,33.9742584 144.17245,30.7053184 141.63503,30.1728384 C140.31533,29.8959084 138.56872,30.3788384 137.87114,29.2248384 C137.609741,28.646385 137.567325,27.9926815 137.75178,27.3852984 C138.31178,24.4240284 139.25719,21.3267084 138.28257,18.4748884 C136.81268,14.1738884 131.75129,12.4090184 127.27907,11.5975584 C122.80685,10.7860984 117.78632,10.0879684 114.9792,6.51316844 C114.227826,5.32612216 113.412837,4.18055775 112.5378,3.08148844 C111.250107,1.91073209 109.667913,1.11272466 107.96102,0.773108438 C102.409139,-0.631903653 96.5448005,-0.111438956 91.32714,2.24937844 C89.16378,3.23656844 86.99079,4.56595844 84.6176,4.41555844 C82.15252,4.25930844 80.04692,2.52445844 77.61324,2.10240844 C73.68224,1.42067844 69.92424,4.36573844 67.98702,7.85351844 C65.58666,12.1752084 65.36636,18.0935184 68.75735,21.6907684 C70.44907,23.4854184 72.97308,24.7181684 73.67565,27.0823084 C73.96165,28.0446184 73.89523,29.0810684 74.14816,30.0525484 C74.7492385,32.0261895 76.4294112,33.4798847 78.46897,33.7909384 C80.87266,34.1825084 82.90638,33.0812784 84.67222,31.5822384 Z" id="Path" fill="#2F2E41"></path>
            <path d="M46.86004,178.219978 C48.044543,181.2628 50.5159873,183.624679 53.6093586,184.670081 C56.7027298,185.715484 60.1002694,185.337025 62.88777,183.636538 L118.09603,212.820778 L119.8838,199.371858 L66.23847,167.738228 C63.0002691,163.143894 56.8375444,161.697645 51.893593,164.371817 C46.9496416,167.04599 44.7871691,172.99532 46.86004,178.219978 Z" id="Path" fill="#FFB6B6"></path>
            <path d="M120.4306,180.545308 C118.609031,183.255235 115.680692,185.019134 112.433539,185.362375 C109.186387,185.705617 105.953978,184.592941 103.60609,182.323748 L43.35002,198.721258 L43.87453,181.646258 L103.81513,166.077568 C107.980111,162.303084 114.309944,162.240289 118.548988,165.9314 C122.788032,169.622512 123.596394,175.90083 120.4306,180.545348 L120.4306,180.545308 Z" id="Path" fill="#FFB6B6"></path>
            <path d="M143.84773,109.921038 L155.59642,109.184978 C155.59642,109.184978 169.35169,127.335028 161.72204,147.030458 C161.72204,147.030458 163.04382,217.780348 132.57787,214.874248 C102.11192,211.968148 92.48587,211.968158 92.48587,211.968158 L101.63058,186.459218 L122.08853,180.142838 C122.08853,180.142838 115.78337,152.329198 127.71835,140.756838 L143.84773,109.921038 Z" id="Path" fill="#E4E4E4"></path>
            <path d="M59.01152,109.299518 L57.35095,100.787178 C57.35095,100.787178 32.8627,100.212408 28.02065,137.319558 C28.02065,137.319558 5.99929,192.854278 27.58406,200.004718 C49.16883,207.155158 72.91174,200.004718 72.91174,200.004718 L71.12331,175.514368 L47.37331,170.667368 C47.37331,170.667368 59.64215,154.794768 52.9616,141.027008 L59.01152,109.299518 Z" id="Path" fill="#E4E4E4"></path>
        </g>
    </g>
</svg>