<?xml version="1.0" encoding="UTF-8"?>
<svg width="124px" height="384px" viewBox="0 0 124 384" version="1.1" xmlns="http://www.w3.org/2000/svg" xmlns:xlink="http://www.w3.org/1999/xlink">
    <title>Group</title>
    <g id="Page-1" stroke="none" stroke-width="1" fill="none" fill-rule="evenodd">
        <g id="Group" transform="translate(0.079379, 0.439942)" fill-rule="nonzero">
            <path d="M93.5379014,251.582918 C96.1054945,250.305195 97.9752626,247.955816 98.6440908,245.16695 C99.3129189,242.378083 98.7121036,239.436207 97.0033114,237.132918 L119.585311,112.157578 L98.5124714,111.879868 L82.8305714,235.464288 C79.0688968,238.661644 78.2931539,244.167193 81.024885,248.279483 C83.7566161,252.391772 89.1323682,253.810977 93.5379514,251.582948 L93.5379014,251.582918 Z" id="Path" fill="#A0616A"></path>
            <polygon id="Path" fill="#A0616A" points="28.1356214 245.657058 20.1356214 283.657058 21.1356214 368.657058 36.1356214 368.657058 43.1356214 285.657058 54.1356214 250.657058"></polygon>
            <polygon id="Path" fill="#A0616A" points="78.1356214 245.657058 70.1356214 283.657058 71.1356214 368.657058 86.1356214 368.657058 93.1356214 285.657058 104.135621 250.657058"></polygon>
            <path d="M15.88686,366.4842 L39.53074,366.4842 L39.53074,381.37107 L1,381.37107 L1,381.37107 C1,377.422827 2.56842521,373.636292 5.36025388,370.844461 C8.15208255,368.052631 11.9386167,366.4842 15.88686,366.4842 Z" id="Path" fill="#2F2E41" transform="translate(20.265370, 373.927635) rotate(2.598970) translate(-20.265370, -373.927635) "></path>
            <path d="M65.8868593,366.484202 L89.5307393,366.484202 L89.5307393,381.371072 L50.9999993,381.371072 L50.9999993,381.371072 C50.9999993,377.422828 52.5684245,373.636293 55.3602531,370.844463 C58.1520818,368.052632 61.938616,366.484202 65.8868593,366.484202 Z" id="Path" fill="#2F2E41" transform="translate(70.265369, 373.927637) rotate(2.598970) translate(-70.265369, -373.927637) "></path>
            <circle id="Oval" fill="#A0616A" cx="64.6353814" cy="34.7402281" r="24.56103"></circle>
            <path d="M118.913291,95.4892481 C110.786441,82.7370681 83.7471514,50.9621081 43.6353914,77.1575481 C43.6353914,77.1575481 53.1353914,156.657548 30.1353914,199.657548 C30.1353914,199.657548 83.1353914,215.657548 112.135391,200.657548 C112.135391,200.657548 102.135391,133.657548 112.135391,120.657548 C115.469936,116.503204 118.170246,111.877512 120.148281,106.931288 C121.556432,103.13498 121.099078,98.8976466 118.913291,95.4892481 L118.913291,95.4892481 Z" id="Path" fill="#CCCCCC"></path>
            <path d="M109.135441,94.6575481 L118.949021,98.7465481 C120.282816,99.3023063 121.173875,100.580432 121.234021,102.024128 L122.135421,123.657548 L100.135421,121.657548 L109.135441,94.6575481 Z" id="Path" fill="#CCCCCC"></path>
            <path d="M34.1354414,197.657548 C34.1354414,197.657548 12.1354414,238.657548 16.1354414,276.657548 L47.1354414,281.657548 L69.1354414,228.657548 L64.1354414,282.657548 L96.1354414,283.657548 C96.1354414,283.657548 117.135441,205.657548 110.135441,198.657548 L34.1354414,197.657548 Z" id="Path" fill="#2F2E41"></path>
            <path d="M28.5379014,241.582918 C31.1054945,240.305195 32.9752626,237.955816 33.6440908,235.16695 C34.3129189,232.378083 33.7121036,229.436207 32.0033114,227.132918 L54.5853114,102.157578 L33.5124714,101.879868 L17.8305714,225.464288 C14.0688968,228.661644 13.2931539,234.167193 16.024885,238.279483 C18.7566161,242.391772 24.1323682,243.810977 28.5379514,241.582948 L28.5379014,241.582918 Z" id="Path" fill="#A0616A"></path>
            <path d="M53.1354414,77.6575481 L44.1354414,76.6575481 C44.1354414,76.6575481 36.1354414,74.6575481 33.1354414,85.6575481 C30.1354414,96.6575481 30.1354414,118.657548 30.1354414,118.657548 L58.1354414,117.657548 L53.1354414,77.6575481 Z" id="Path" fill="#CCCCCC"></path>
            <path d="M68.5698014,46.5646681 C69.4518014,43.5028781 69.1969514,39.3596681 66.2285514,38.2015881 C64.6819014,37.5981781 62.9562214,38.0741081 61.3046714,38.2432381 C58.0729467,38.5606178 54.8381515,37.6702299 52.2240514,35.7437681 C49.1535514,33.4611881 47.2569814,29.9721481 45.4560514,26.5965481 L42.7320514,21.4908981 C42.1259009,20.4264762 41.6089666,19.3136711 41.1865514,18.1638981 C39.6708914,13.6565781 41.3166214,8.43831806 44.6856614,5.08231806 C48.2065205,1.80690355 52.839637,-0.00958778344 57.6484514,0 C62.4195354,0.0342829571 67.1331895,1.04410764 71.4995714,2.96741806 C79.260641,6.13093899 86.2900365,10.8533253 92.1528714,16.8424181 C95.9848714,20.7625181 99.4731814,25.8693381 98.6725314,31.2924181 C98.0493014,35.5137981 94.9722614,38.8941281 92.0376714,41.9919781 L81.3929714,53.2288781 C79.5078214,55.2188781 77.4933514,57.2900581 74.8611314,58.0551881 C72.2289114,58.8203181 68.8379414,57.6963581 68.1201314,55.0508481 C68.1200914,55.0508881 67.6877714,49.6264181 68.5698014,46.5646681 Z" id="Path" fill="#2F2E41"></path>
        </g>
    </g>
</svg>