<?xml version="1.0" encoding="UTF-8"?>
<svg width="150px" height="476px" viewBox="0 0 150 476" version="1.1" xmlns="http://www.w3.org/2000/svg" xmlns:xlink="http://www.w3.org/1999/xlink">
    <title>Group</title>
    <g id="Page-1" stroke="none" stroke-width="1" fill="none" fill-rule="evenodd">
        <g id="Group" transform="translate(0.897000, 0.852723)" fill-rule="nonzero">
            <polygon id="Path" fill="#FFB6B6" points="30.503 462.446277 42.763 462.446277 48.595 415.158277 30.501 415.159277"></polygon>
            <path d="M27.37545,458.443967 L51.51945,458.442967 L51.52045,458.442967 C60.0179267,458.443393 66.9064188,465.331791 66.90696,473.829267 L66.90696,474.329267 L27.3762,474.330727 L27.37545,458.443967 Z" id="Path" fill="#2F2E41"></path>
            <polygon id="Path" fill="#FFB6B6" points="72.503 462.446277 84.763 462.446277 90.595 415.158277 72.501 415.159277"></polygon>
            <path d="M69.37545,458.443967 L93.51945,458.442967 L93.52045,458.442967 C102.017927,458.443393 108.906419,465.331791 108.90696,473.829267 L108.90696,474.329267 L69.3762,474.330727 L69.37545,458.443967 Z" id="Path" fill="#2F2E41"></path>
            <polygon id="Path" fill="#2F2E41" points="119.09 256.444277 89.141 441.429277 69.141 440.429277 69.637 270.574277"></polygon>
            <polygon id="Path" fill="#2F2E41" points="38.35059 199.926887 111.0162 200.936107 119.09014 256.444497 69.63714 279.657147 48.14121 436.429467 29.14121 435.429467 22.20264 241.305827"></polygon>
            <circle id="Oval" fill="#FFB9B9" cx="81.74805" cy="34.4107175" r="22.20337"></circle>
            <polygon id="Path" fill="#E4E4E4" points="92.141 69.4292775 104.961 85.8822775 98.905 212.037277 51.471 211.028277 43.397 101.021277 53.489 72.7622775 57.141 66.4292775"></polygon>
            <path d="M114.04394,133.316697 L125.14562,175.704967 L114.04394,218.093207 L132.21032,242.315077 L148.35824,165.612497 C148.35824,165.612497 136.24724,103.039407 135.23803,95.9746475 C134.22882,88.9098875 132.21032,87.9006475 132.21032,87.9006475 L124.13632,88.9098975 L114.04394,133.316697 Z" id="Path" fill="#2F2E41"></path>
            <polygon id="Path" fill="#2F2E41" points="33.305 149.464277 26.24 162.585277 24.221 184.788277 28.258 210.019277 14.129 233.232277 3.55271368e-15 169.649277 15.138 87.9002775 21.194 87.9002775"></polygon>
            <path d="M62.54612,40.1617875 L62.02012,49.1373975 C62.02012,49.1373975 55.50771,34.4106875 54.49847,19.2720475 C53.48923,4.13340746 70.64639,1.10566746 80.73882,0.0964174596 C90.83125,-0.91283254 107.98845,6.15186746 107.98845,14.2258375 C107.98845,22.2998075 89.82203,20.2813275 82.75734,18.2628375 C75.69265,16.2443475 72.6649,33.4015075 72.6649,33.4015075 L68.6279,34.4107575 L62.54612,40.1617875 Z" id="Path" fill="#2F2E41"></path>
            <path d="M117.07165,147.446087 L113.03465,185.797377 L121.10859,209.010017 L126.15483,231.213387 C126.15483,231.213387 126.15477,252.407547 105.96995,253.416757 C85.78513,254.425967 27.24895,252.407547 27.24895,252.407547 C27.24895,252.407547 19.175,251.398267 12.11029,235.250377 C5.04558,219.102487 26.23971,203.963817 26.23971,203.963817 L32.29521,182.769667 L30.27673,156.529267 L16.14716,87.9006375 L58.0308,66.2018775 L68.62786,169.649417 L91.33586,69.2296175 L98.9052,74.7804575 L131.20103,87.9006375 L117.07165,147.446087 Z" id="Path" fill="#2F2E41"></path>
        </g>
    </g>
</svg>