<?xml version="1.0" encoding="UTF-8"?>
<svg width="159px" height="508px" viewBox="0 0 159 508" version="1.1" xmlns="http://www.w3.org/2000/svg" xmlns:xlink="http://www.w3.org/1999/xlink">
    <title>Group</title>
    <g id="Page-1" stroke="none" stroke-width="1" fill="none" fill-rule="evenodd">
        <g id="Group" transform="translate(0.802530, 0.923124)" fill-rule="nonzero">
            <path d="M133.97982,251.262306 C133.349326,248.590447 131.567745,246.33509 129.114467,245.103108 C126.66119,243.871125 123.788224,243.789072 121.26863,244.879026 L98.98573,220.586406 L94.82188,237.202736 L116.62046,257.723956 C118.779476,261.927616 123.741365,263.852109 128.170184,262.203575 C132.599004,260.555041 135.094883,255.854551 133.97981,251.262306 L133.97982,251.262306 Z" id="Path" fill="#9F616A"></path>
            <polygon id="Path" fill="#9F616A" points="86.11947 493.599876 99.73447 493.598876 106.21247 441.081876 86.11747 441.082876"></polygon>
            <path d="M82.64642,489.154166 L109.46004,489.153086 L109.46112,489.153086 C118.898112,489.153577 126.548228,496.803563 126.54888,506.240556 L126.54888,506.795836 L82.64725,506.797466 L82.64642,489.154166 Z" id="Path" fill="#2F2E41"></path>
            <polygon id="Path" fill="#9F616A" points="7.93047 480.111876 20.65947 484.943876 45.35247 438.143876 26.56547 431.013876"></polygon>
            <path d="M6.26059,474.723776 L31.3293,484.238516 L31.3303,484.238896 C40.1528526,487.588411 44.5901492,497.455361 41.24172,506.278326 L41.04466,506.797466 L0,491.218966 L6.26059,474.723776 Z" id="Path" fill="#2F2E41"></path>
            <path d="M52.74963,318.916966 L41.46663,379.630056 C41.46663,379.630056 10.84146,465.058146 12.99063,467.207286 C15.1398,469.356426 44.69036,476.878356 43.07852,472.042846 C41.46668,467.207336 78.53924,394.673926 78.53924,394.673926 L52.74963,318.916966 Z" id="Path" fill="#2F2E41"></path>
            <path d="M98.50488,208.586326 C98.50488,208.586326 121.28177,238.360106 118.29695,239.984146 C115.31213,241.608186 103.75025,250.220386 103.75025,250.220386 L91.98653,217.935896 L98.50488,208.586326 Z" id="Path" fill="#E4E4E4"></path>
            <path d="M104.86615,238.639066 C104.86615,238.639066 108.62715,266.577826 107.01529,272.487906 C105.40343,278.397986 106.478,446.030556 107.5526,448.716986 C108.6272,451.403416 111.85088,460.537196 110.23902,464.835476 C108.62716,469.133756 86.59854,479.879406 83.37483,476.118406 C80.15112,472.357406 56.51065,335.350136 56.51065,335.350136 C56.51065,335.350136 23.19906,252.608476 30.72103,244.549206 C38.243,236.489936 104.86615,238.639066 104.86615,238.639066 Z" id="Path" fill="#2F2E41"></path>
            <circle id="Oval" fill="#9F616A" transform="translate(56.531118, 32.755188) rotate(-11.472490) translate(-56.531118, -32.755188) " cx="56.531118" cy="32.7551884" r="26.32689"></circle>
            <path d="M78.0017462,14.7812257 C78.01601,10.1709057 73.79455,6.7206757 69.66852,4.6636457 C60.6905056,0.22191658 50.486648,-1.0955914 40.67487,0.920025698 C33.77732,2.3589557 27.02152,5.6319257 22.72009,11.2126457 C17.7029,17.7219457 16.64247,26.7428857 18.78492,34.6771857 C20.92737,42.6114857 25.9704,49.5257257 32.01092,55.0984757 C34.91007,57.7731457 39.20312,60.2796557 42.54222,58.1798457 C43.8227973,57.230162 44.8288762,55.9581252 45.45804,54.4932257 C47.1935094,51.1443346 48.5842889,47.627806 49.60896,43.9977957 C50.39279,41.2200557 50.97588,38.3416857 52.37322,35.8163257 C53.77056,33.2909657 56.19873,31.1121757 59.07917,30.9301257 C61.45849,30.7797357 64.05955,31.9482957 66.11171,30.7347957 C68.39476,29.3847357 68.35109,26.1237957 68.02032,23.4921157 C67.65778,20.6075557 66.83825,17.3473057 67.082,14.5011157 C68.03837,14.7866557 78.00798,16.9875957 78.0017462,14.7812257 Z" id="Path" fill="#2F2E41"></path>
            <rect id="Rectangle" fill="#6C63FF" transform="translate(138.720373, 240.828769) rotate(-10.116513) translate(-138.720373, -240.828769) " x="122.82437" y="224.932766" width="31.7920061" height="31.7920061"></rect>
            <circle id="Oval" fill="#3F3D56" cx="134.22261" cy="215.618966" r="9.71425"></circle>
            <path d="M84.03899,92.2524757 C83.3737565,87.9890027 81.2517575,84.0877535 78.0341,81.2126157 L73.23288,66.5378757 L45.02388,66.5378757 L37.16304,78.8732057 C28.65816,82.5347057 22.36128,88.3399957 22.12446,95.1843557 C20.82417,99.7297657 26.4228,244.011936 28.03462,249.384736 C28.50728,250.948276 34.93892,251.786346 43.97062,252.157136 C52.25528,252.495576 62.72696,252.447236 72.7797,252.216136 C89.4247,251.829356 104.94132,250.937456 107.55265,250.459246 C113.46281,249.384736 84.62443,95.6425557 84.03899,92.2524757 Z" id="Path" fill="#E4E4E4"></path>
            <path d="M59.0986,283.582436 C56.7849569,282.1048 55.2446463,279.678258 54.8921353,276.955743 C54.5396242,274.233228 55.4111235,271.494405 57.27213,269.476236 L41.70306,240.420036 L58.76212,241.978316 L70.93144,269.331656 C74.1860621,272.757976 74.3636276,278.077062 71.3447565,281.712809 C68.3258854,285.348555 63.0647954,286.15176 59.0986,283.582416 L59.0986,283.582436 Z" id="Path" fill="#9F616A"></path>
            <path d="M56.51061,76.3793957 C56.51061,76.3793957 81.22567,86.5877857 72.09185,112.377396 C62.95803,138.167006 52.74965,168.792176 52.74965,168.792176 C52.74965,168.792176 65.64446,238.101776 65.64446,240.788176 C65.64446,243.474576 73.70376,257.981246 70.48002,260.667666 C67.25628,263.354086 45.76497,268.726936 45.22768,266.040516 C43.5809444,259.851407 41.6081512,253.753688 39.31756,247.772886 C38.24299,245.623746 12.99067,178.463286 16.21437,172.553156 C18.58664,168.203966 20.66798,128.358156 21.6019,107.614066 C22.0409618,95.5736275 28.8000478,84.6581768 39.3829,78.8989957 C44.39218,76.2441057 50.2244,74.8078357 56.51061,76.3793957 Z" id="Path" fill="#E4E4E4"></path>
        </g>
    </g>
</svg>