<?xml version="1.0" encoding="UTF-8"?>
<svg width="255px" height="373px" viewBox="0 0 255 373" version="1.1" xmlns="http://www.w3.org/2000/svg" xmlns:xlink="http://www.w3.org/1999/xlink">
    <title>Group 2</title>
    <g id="Page-1" stroke="none" stroke-width="1" fill="none" fill-rule="evenodd">
        <g id="Group-2" transform="translate(0.536616, 0.602376)" fill-rule="nonzero">
            <path d="M135.680524,13.1533139 C142.777524,9.85176389 151.490974,8.76942389 158.712344,11.8373139 C165.933714,14.9052039 170.856874,22.7688439 168.521814,29.7281439 C167.463134,32.8833839 165.051924,35.9864939 165.991314,39.1731439 C166.714374,41.6259839 169.236774,43.2454039 171.713904,44.3968639 C174.191034,45.5483239 176.900844,46.5163739 178.692314,48.4584139 C180.483784,50.4004539 180.857414,53.7437339 178.619464,55.2497939 C177.882144,55.7459839 176.960604,55.9812939 176.245704,56.5041639 C174.996577,57.5190405 174.528981,59.2146947 175.081384,60.7263639 C175.677217,62.2101271 176.662055,63.5058089 177.932224,64.4770139 C180.472754,66.6679539 183.830294,69.1755139 183.041484,72.2857439 C182.447484,73.9727525 181.067386,75.2635904 179.344484,75.7436339 C177.581459,76.2521151 175.752193,76.493549 173.917614,76.4598939 L98.9513941,78.8214939 C96.4767048,79.0074044 93.9883244,78.8684091 91.5497341,78.4080539 C89.1535323,77.9709575 87.0474233,76.5561217 85.7367941,74.5030539 C84.3011941,71.8457739 85.2436841,68.5724839 87.0165941,66.0911939 C88.7895041,63.6099039 91.2985941,61.6525639 93.3718341,59.3741039 C95.4450741,57.0956439 97.1413141,54.2513939 96.7758341,51.3066239 C96.4832841,48.9493039 94.9286541,46.9119239 93.8126341,44.7700239 C92.6966141,42.6281239 92.0483541,39.9515539 93.4937641,37.9810939 C95.5305541,35.2044439 100.420634,35.4555839 102.736614,32.8682539 C104.484384,30.9157039 104.146874,28.1048039 104.320614,25.5869139 C104.738614,19.5303539 108.931794,13.8104639 114.900884,11.1543439 C121.05849,8.51103265 128.111745,8.99139096 133.854114,12.4451439 L135.680524,13.1533139 Z" id="Path" fill="#2F2E41"></path>
            <polygon id="Path" fill="#9E616A" points="226.976384 312.874624 226.976384 325.134624 179.688384 330.967624 179.689384 312.872624"></polygon>
            <path d="M238.860654,309.748444 L238.859184,349.279204 L238.359184,349.279204 C229.861771,349.278591 222.973452,342.390147 222.972994,333.892734 L222.972994,333.891734 L222.973994,309.747734 L238.860654,309.748444 Z" id="Path" fill="#2F2E41"></path>
            <polygon id="Path" fill="#9E616A" points="168.519384 333.729624 165.509384 345.613624 118.236384 339.659624 122.679384 322.119624"></polygon>
            <path d="M180.807174,333.615774 L171.102064,371.936684 L170.617364,371.813944 C162.380066,369.727495 157.393401,361.358906 159.478844,353.121354 L159.479084,353.120414 L165.406714,329.715324 L180.807174,333.615774 Z" id="Path" fill="#2F2E41"></path>
            <path d="M156.446274,196.243664 L158.999274,198.903664 C158.999274,198.903664 175.660914,211.968544 163.333824,246.383664 L143.169254,304.473664 L210.757644,307.109154 L209.309274,333.653664 C209.309274,333.653664 111.291874,339.105834 112.149274,322.952294 C113.006674,306.798754 116.623154,246.987354 116.623154,246.987354 L96.2591541,230.633644 L101.169154,202.973644 L156.446274,196.243664 Z" id="Path" fill="#2F2E41"></path>
            <path d="M104.089214,222.605874 L96.2592141,230.633684 L70.0067141,302.798784 C70.0067141,302.798784 66.0067141,320.798784 75.0067141,324.798784 C84.0067141,328.798784 141.916314,351.174264 141.916314,351.174264 L147.829544,329.891484 L103.209224,303.109814 L124.006714,275.798814 L127.136634,232.753704 L104.089214,222.605874 Z" id="Path" fill="#2F2E41"></path>
            <path d="M104.506694,95.2987839 L171.142004,81.9747839 L172.590084,118.533694 L155.329264,155.323694 L158.999264,198.903694 L99.2789941,209.337604 L101.149304,152.033704 C101.149304,152.033704 85.1115841,129.408644 94.5591541,106.603704 L104.506694,95.2987839 Z" id="Path" fill="#E4E4E4"></path>
            <path d="M253.092874,8.57310389 C253.768899,11.6796427 253.034188,14.9260622 251.08644,17.4388037 C249.138691,19.9515452 246.177987,21.472489 243.001004,21.5923739 L179.101214,95.6897139 L164.244874,77.6598239 L231.727784,10.4939839 C231.883549,5.0234253 236.106348,0.533943903 241.557138,0.0438774899 C247.007927,-0.446188923 251.963808,3.21806116 253.092874,8.57310389 L253.092874,8.57310389 Z" id="Path" fill="#9E616A"></path>
            <path d="M193.013994,87.6044939 C193.044484,89.0048551 192.463257,90.348992 191.422074,91.2859439 L173.454354,107.460814 C168.75821,113.144561 160.348618,113.957112 154.651157,109.277615 C148.953696,104.598119 148.116546,96.1909406 152.779354,90.4798139 L165.321354,69.7202239 C166.045722,68.5214219 167.256022,67.6972886 168.636872,67.4625789 C170.017722,67.2278692 171.432348,67.6058309 172.512124,68.4979739 L191.266424,83.9937239 C192.346826,84.8855084 192.984905,86.2038862 193.013994,87.6044939 Z" id="Path" fill="#E4E4E4"></path>
            <path d="M0.0217840824,182.706764 C-0.180437467,179.53396 1.03308508,176.434545 3.33581581,174.242512 C5.63854655,172.050479 8.79394164,170.991001 11.9529441,171.349164 L86.2475541,107.678864 L98.2303241,127.733804 L21.4332241,184.013494 C20.4583829,189.398761 15.6097397,193.203804 10.1471137,192.870433 C4.68448775,192.537062 0.33452933,188.17065 0.0217840824,182.706804 L0.0217840824,182.706764 Z" id="Path" fill="#9E616A"></path>
            <path d="M71.2790941,113.584944 C71.4590651,112.195857 72.2354019,110.954145 73.4053941,110.184034 L93.5967141,96.8883339 C99.0924228,91.9725684 107.529587,92.4306436 112.460781,97.9125123 C117.391976,103.394381 116.957619,111.832799 111.489634,116.779384 L95.9746941,135.422034 C95.0786418,136.498568 93.7583822,137.131762 92.3579476,137.156618 C90.9575131,137.181474 89.6156149,136.595531 88.6819241,135.551474 L72.4650941,117.417084 C71.5307174,116.373281 71.097679,114.974071 71.2790941,113.584944 L71.2790941,113.584944 Z" id="Path" fill="#E4E4E4"></path>
            <circle id="Oval" fill="#9E616A" cx="132.906744" cy="53.6795239" r="24.56103"></circle>
            <path d="M158.033434,50.1876539 C150.277004,49.5648039 143.837194,41.8162439 144.643704,34.0767639 C144.831944,40.6804209 140.04077,46.3766247 133.502494,47.3224939 C129.944614,47.7144939 126.044094,46.6380639 122.947244,48.4329739 C119.517244,50.4209739 118.419674,55.2487539 114.846334,56.9658039 C111.393794,58.6248039 107.008634,56.3621839 105.302884,52.9324939 C103.597134,49.5028039 104.015754,45.3822939 105.146194,41.7224439 C108.425384,31.1059083 117.031266,22.9862689 127.820375,20.3293817 C138.609483,17.6724944 150.001665,20.8674823 157.835704,28.7473139 C161.097124,32.0277939 163.686704,36.2087739 164.106704,40.8155239 C164.526704,45.4222739 162.389704,50.4208639 158.252554,52.4903739 L158.033434,50.1876539 Z" id="Path" fill="#2F2E41"></path>
        </g>
    </g>
</svg>