<?xml version="1.0" encoding="UTF-8"?>
<svg width="185px" height="424px" viewBox="0 0 185 424" version="1.1" xmlns="http://www.w3.org/2000/svg" xmlns:xlink="http://www.w3.org/1999/xlink">
    <title>Group</title>
    <g id="Page-1" stroke="none" stroke-width="1" fill="none" fill-rule="evenodd">
        <g id="Group" transform="translate(0.508278, -0.000002)" fill-rule="nonzero">
            <circle id="Oval" fill="#2F2E41" cx="83.3335515" cy="51.4831716" r="28.08173"></circle>
            <polygon id="Path" fill="#FFB8B8" points="174.398722 412.099002 162.138722 412.098002 156.305722 364.810002 174.400722 364.811002"></polygon>
            <path d="M153.381362,408.595112 L177.025232,408.595112 L177.025232,423.482002 L138.494502,423.482002 L138.494502,423.482002 C138.494502,419.533756 140.062923,415.747217 142.854751,412.955383 C145.64658,410.163548 149.433116,408.595112 153.381362,408.595112 L153.381362,408.595112 Z" id="Path" fill="#2F2E41"></path>
            <polygon id="Path" fill="#FFB8B8" points="49.3367215 410.494002 37.4997215 407.302002 44.1767215 360.126002 61.6467215 364.837002"></polygon>
            <path d="M27.8676598,402.523771 L51.5115598,402.523771 L51.5115598,417.410641 L12.9808298,417.410641 L12.9808298,417.410641 C12.9808298,409.188863 19.6458819,402.523771 27.8676598,402.523771 L27.8676598,402.523771 Z" id="Path" fill="#2F2E41" transform="translate(32.246195, 409.967206) rotate(15.089560) translate(-32.246195, -409.967206) "></path>
            <path d="M72.5688915,193.295902 L36.0626415,400.164642 L54.7837915,403.908872 L113.755432,257.883872 L157.750132,402.972812 L180.215522,400.164632 C180.215522,400.164632 169.918882,192.359842 137.156872,174.574742 L72.5688915,193.295902 Z" id="Path" fill="#2F2E41"></path>
            <path d="M14.6734815,267.299192 C17.3377628,265.973347 19.27794,263.535493 19.9719544,260.641603 C20.6659688,257.747712 20.04253,254.695051 18.2693915,252.305022 L38.4027815,222.781722 L19.8353215,222.493562 L3.56290152,250.573562 C-0.340449277,253.891309 -1.1454188,259.604194 1.68918771,263.871348 C4.52379422,268.138502 10.1019998,269.611139 14.6734815,267.299182 L14.6734815,267.299192 Z" id="Path" fill="#FFB8B8"></path>
            <path d="M147.593662,230.792952 C150.257952,229.467117 152.198139,227.029263 152.892157,224.135369 C153.586174,221.241475 152.96273,218.188808 151.189582,215.798782 L171.322972,186.275472 L152.755512,185.987312 L136.483092,214.067312 C132.579731,217.385054 131.774753,223.097945 134.609359,227.365104 C137.443966,231.632264 143.022177,233.104904 147.593662,230.792942 L147.593662,230.792952 Z" id="Path" fill="#FFB8B8"></path>
            <circle id="Oval" fill="#FFB8B8" cx="84.0484915" cy="60.5636716" r="24.56103"></circle>
            <path d="M137.156872,98.7540916 C136.220812,95.0098616 120.307872,95.9459216 120.307872,95.9459216 C120.307872,95.9459216 102.389312,91.8264416 102.558872,92.3415516 C87.4590015,91.1792516 69.0395115,96.8481516 66.3568015,97.7078816 C60.8682015,99.2221216 50.3814815,103.854112 42.8188015,107.261042 C40.628037,108.248428 39.6416002,110.816311 40.6078915,113.016462 L63.6763615,165.682212 L66.9525615,199.848322 L142.773232,176.446882 C124.052062,168.958402 138.092922,102.498312 137.156872,98.7540916 Z" id="Path" fill="#6C63FF"></path>
            <polygon id="Path" fill="#6C63FF" points="130.604722 99.6900016 136.827722 98.1270016 170.854722 165.214002 172.726722 203.593002 151.197722 186.744002 151.197722 171.767002 128.732722 142.749002"></polygon>
            <path d="M48.6994215,104.838462 L41.4938015,108.040952 C40.7319111,108.379574 40.1886285,109.075309 40.0448015,109.896562 L25.7660115,191.423792 L11.7251415,232.610332 L30.4462915,241.970902 L51.9756215,190.487732 L59.4640815,153.045422 L48.6994215,104.838462 Z" id="Path" fill="#6C63FF"></path>
            <path d="M58.2915615,48.9853716 C63.2765615,47.3485316 68.5351615,49.9146116 73.4048415,51.8680516 C78.2041115,53.7932516 83.3317715,55.1806316 88.4938415,54.8773516 C93.6559115,54.5740716 98.8765115,52.3940316 101.997392,48.2709916 C105.118272,44.1479516 105.667482,37.9687416 102.578242,33.8219916 C100.544602,31.0921416 97.2996315,29.5345916 94.0501615,28.5203716 C87.1072315,26.3533716 79.3367115,26.2785316 72.7371615,29.3357116 C66.1376115,32.3928916 60.9624615,38.8513816 60.4187315,46.1042716" id="Path" fill="#2F2E41"></path>
            <path d="M82.5855515,29.4214416 C80.9111415,18.0853716 87.1206715,6.3154416 95.5956915,2.0932316 C104.070712,-2.1289784 114.013372,0.361751604 121.648202,6.6491516 C129.283032,12.9365516 134.848702,22.5983916 138.991152,32.8690116 C143.133602,43.1396316 146.001882,54.1402316 149.377082,64.8516616 C152.374692,74.3647616 155.893562,83.8836116 161.586642,91.1593016 C167.279722,98.4349916 175.558812,103.169502 183.491722,101.170442 C176.974402,109.933142 164.984722,108.415872 157.546512,100.920712 C150.108302,93.4255516 146.241512,81.7105316 143.197732,70.3070516 C140.153952,58.9035716 137.505522,46.9719316 131.617332,37.5220516 C121.142142,20.7105916 100.586092,15.6598916 85.9060215,26.2906116" id="Path" fill="#2F2E41"></path>
        </g>
    </g>
</svg>