<?xml version="1.0" encoding="UTF-8"?>
<svg width="211px" height="386px" viewBox="0 0 211 386" version="1.1" xmlns="http://www.w3.org/2000/svg" xmlns:xlink="http://www.w3.org/1999/xlink">
    <title>Group</title>
    <g id="Page-1" stroke="none" stroke-width="1" fill="none" fill-rule="evenodd">
        <g id="Group" transform="translate(0.320383, 0.474350)" fill-rule="nonzero">
            <polygon id="Path" fill="#FFB8B8" points="172.541617 373.24065 184.723617 371.85765 185.188617 324.21365 167.209617 326.25465"></polygon>
            <path d="M170.252637,367.836438 L208.783377,367.836438 L208.783377,382.723308 L185.139497,382.723308 C176.917711,382.723308 170.252637,376.058233 170.252637,367.836438 L170.252637,367.836438 L170.252637,367.836438 Z" id="Path" fill="#2F2E41" transform="translate(189.518007, 375.279873) rotate(173.525940) translate(-189.518007, -375.279873) "></path>
            <polygon id="Path" fill="#FFB8B8" points="47.261617 372.47965 59.521617 372.47865 65.353617 325.19065 47.259617 325.19165"></polygon>
            <path d="M44.63491,368.976025 L83.16564,368.976025 L83.16564,383.862895 L59.52177,383.862895 C51.2999843,383.862895 44.63491,377.197821 44.63491,368.976025 L44.63491,368.976025 L44.63491,368.976025 Z" id="Path" fill="#2F2E41" transform="translate(63.900275, 376.419460) rotate(179.997380) translate(-63.900275, -376.419460) "></path>
            <path d="M135.223167,161.01165 L142.223167,183.78088 L180.223167,266.01165 L190.223167,344.01165 L167.223167,345.01165 L153.223167,273.01165 L105.223167,221.01165 L63.223167,357.01165 L44.223167,355.01165 C44.223167,355.01165 60.223167,179.01165 82.223167,161.01165 C82.223167,161.01165 118.223167,144.01165 135.223167,161.01165 Z" id="Path" fill="#2F2E41"></path>
            <circle id="Oval" fill="#FFB8B8" cx="104.171987" cy="38.20455" r="24.56103"></circle>
            <path d="M137.723167,165.51165 C137.723167,165.51165 140.723167,63.51165 98.723167,70.51165 C56.723167,77.51165 74.223167,176.01165 74.223167,176.01165 C74.223167,176.01165 83.223167,194.01165 105.223167,174.01165 C127.223167,154.01165 137.723167,165.51165 137.723167,165.51165 Z" id="Path" fill="#CCCCCC"></path>
            <polygon id="Path" fill="#000000" opacity="0.2" points="79.723617 113.51165 89.606617 151.39465 104.663617 166.45265 83.723617 159.51165"></polygon>
            <path d="M138.033477,208.64992 C135.235745,207.635534 133.031019,205.434024 132.012551,202.637775 C130.994082,199.841526 131.266491,196.737778 132.756477,194.16169 L109.397607,167.11834 L127.811967,164.72145 L147.170827,190.76974 C151.425985,193.622294 152.875112,199.206631 150.543943,203.768328 C148.212773,208.330025 142.838148,210.427211 138.033497,208.64992 L138.033477,208.64992 Z" id="Path" fill="#FFB8B8"></path>
            <path d="M109.593127,91.28742 L112.223127,143.01165 L143.223127,183.01165 L130.223127,193.01165 L88.223127,151.01165 C88.223127,151.01165 73.223127,100.01165 84.223127,85.01165 C88.348127,79.38665 92.895007,77.83977 96.967267,78.10344 C103.900574,78.6807708 109.316052,84.335637 109.593127,91.28742 Z" id="Path" fill="#CCCCCC"></path>
            <path d="M101.250867,64.01185 C101.488707,63.7986607 101.612144,63.4858348 101.583966,63.1676786 C101.555788,62.8495225 101.379293,62.5632602 101.107687,62.39519 C96.6649813,59.6438248 94.0794355,54.6859357 94.3662124,49.4681389 C94.6529894,44.2503421 97.7663046,39.6056698 102.483777,37.35776 C109.704837,33.91485 119.489827,36.59332 124.827917,29.97737 C127.024639,27.1131065 127.865255,23.4342628 127.130557,19.90017 C125.978737,13.65143 121.281157,9.01087001 116.020307,5.83058001 C102.836415,-2.1393223 86.2688887,-1.92383128 73.2967484,6.38627811 C60.3246081,14.6963875 53.202735,29.6566114 54.931197,44.965 C55.610257,50.97912 57.465987,57.72278 53.889907,62.60565 C50.742567,66.9031 44.801757,67.70891 39.583177,68.77673 C28.390047,71.06704 17.591527,76.35062 9.99564704,84.88493 C2.39976704,93.41924 -1.65241296,105.39316 0.637767043,116.58632 C2.92794704,127.77948 12.115827,137.61641 23.408377,139.35138 C32.600027,140.76357 42.091047,136.86008 48.840897,130.46317 C55.590747,124.06626 59.857287,115.42783 62.548427,106.52622 C65.742577,95.96079 67.002527,84.57585 72.769257,75.16438 C78.412377,65.95466 90.573197,59.35274 100.104177,64.14913 C100.478107,64.3444168 100.933602,64.2898856 101.250867,64.01185 L101.250867,64.01185 Z" id="Path" fill="#2F2E41"></path>
        </g>
    </g>
</svg>