<?xml version="1.0" encoding="UTF-8"?>
<svg width="189px" height="451px" viewBox="0 0 189 451" version="1.1" xmlns="http://www.w3.org/2000/svg" xmlns:xlink="http://www.w3.org/1999/xlink">
    <title>Group</title>
    <g id="Page-1" stroke="none" stroke-width="1" fill="none" fill-rule="evenodd">
        <g id="Group" transform="translate(0.088940, 0.901172)" fill-rule="nonzero">
            <path d="M105.52567,48.9756079 C101.04192,43.1659679 94.70531,37.7903979 94.30401,30.6213479 C93.93616,24.0460179 98.83901,17.5177079 96.77136,11.2270779 C95.18136,6.39029794 89.93626,3.47182794 84.81086,1.92633794 C74.9981938,-0.990037691 64.4972609,-0.58576601 54.93786,3.07640794 L55.45672,2.71050794 C49.62226,0.632187944 42.80232,2.77771794 38.21197,6.75161794 C33.6211,10.7254579 30.89302,16.2336779 28.77629,21.7535179 C26.65904,27.2733679 25.01884,32.9950979 22.07758,38.1700079 C19.13578,43.3449279 14.63218,48.0510779 8.69007,49.8395379 C10.67931,53.8075379 16.89783,55.1687879 20.54502,52.4345379 C21.4767378,51.6778556 22.3142376,50.8120465 23.03954,49.8556979 C25.4718667,46.8979113 27.9043733,43.9401179 30.33706,40.9823179 C32.83994,45.4338079 29.10078,51.5777379 32.17738,55.6988579 C33.76375,57.8240779 36.66113,58.6311779 39.35211,59.2100679 C60.3841795,63.6976408 82.2017771,62.8883916 102.84361,56.8550679 C104.50261,56.3661779 106.333,55.6929079 107.02116,54.1913179 C107.81592,52.4578179 106.70452,50.5033279 105.52567,48.9756079 Z" id="Path" fill="#2F2E41"></path>
            <path d="M165.16086,71.6480479 C165.0295,72.2254544 164.943875,72.8123199 164.90478,73.4031879 L118.93505,99.9229479 L107.76145,93.4905079 L95.84975,109.084628 L114.52375,122.394328 C117.622596,124.602985 121.807377,124.501031 124.79499,122.144088 L172.19767,84.7477679 C176.577812,86.3691447 181.504231,85.1110087 184.57055,81.5879135 C187.636868,78.0648183 188.203241,73.0119256 185.993015,68.8973888 C183.78279,64.782852 179.257172,62.4652485 174.626761,63.076643 C169.99635,63.6880374 166.22737,67.1008506 165.16083,71.6480479 L165.16086,71.6480479 Z" id="Path" fill="#FFB7B7"></path>
            <path d="M117.39823,101.179008 L102.54093,120.434758 C101.685512,121.543364 100.389916,122.224733 98.9917446,122.301314 C97.5935731,122.377896 96.2313105,121.842106 95.25993,120.833558 L78.44046,103.367858 C72.6283498,98.8319445 71.5833375,90.4479104 76.1041749,84.6240659 C80.6250123,78.8002214 89.0063102,77.733487 94.84185,82.2392179 L115.93713,94.0349479 C117.159104,94.7187283 118.022931,95.9005359 118.303512,97.2724144 C118.584094,98.644293 118.25364,100.070359 117.39826,101.179008 L117.39823,101.179008 Z" id="Path" fill="#6C63FF"></path>
            <polygon id="Path" fill="#FFB7B7" points="96.95106 436.687828 110.07006 436.686828 116.31106 386.082828 96.94806 386.083828"></polygon>
            <path d="M93.60413,432.404418 L119.44121,432.403418 L119.44226,432.403418 C128.535528,432.403915 135.907002,439.77525 135.90767,448.868518 L135.90767,449.403578 L93.60491,449.405148 L93.60413,432.404418 Z" id="Path" fill="#2F2E41"></path>
            <polygon id="Path" fill="#FFB7B7" points="7.06006 436.687828 20.18006 436.686828 26.42106 386.082828 7.05806 386.083828"></polygon>
            <path d="M3.71383,432.404418 L29.55092,432.403418 L29.55192,432.403418 C38.6452113,432.403909 46.0166994,439.775277 46.01734,448.868568 L46.01734,449.403628 L3.71458,449.405198 L3.71383,432.404418 Z" id="Path" fill="#2F2E41"></path>
            <circle id="Oval" fill="#FFB7B7" transform="translate(66.533721, 39.347841) rotate(-83.735580) translate(-66.533721, -39.347841) " cx="66.5337213" cy="39.3478415" r="22.67358"></circle>
            <path d="M79.80035,73.3381079 L93.15791,79.9554479 C93.15791,79.9554479 108.08238,105.891988 99.5214,130.504798 C95.36494,142.454628 107.0695,180.546968 107.0695,180.546968 C107.0695,180.546968 125.20434,353.090288 125.26159,406.342818 C102.73177,409.806818 81.32931,414.087278 80.25919,403.386048 C79.18907,392.684818 67.47497,266.156768 67.47497,266.156768 C67.47497,266.156768 51.36588,406.596418 38.52441,408.736698 C25.68294,410.876978 0,407.666578 0,407.666578 C0,407.666578 20.38958,201.949458 34.30117,189.107988 L36.44141,178.406758 L36.38417,82.3493279 L52.41203,74.7004579 L79.80035,73.3381079 Z" id="Path" fill="#2F2E41"></path>
            <path d="M32.01629,219.164008 C35.0085122,217.544935 37.1299014,214.683652 37.8096345,211.350072 C38.4893677,208.016492 37.6576207,204.55305 35.5382,201.891688 L51.07287,98.3446179 L30.77716,97.3702879 L18.66751,200.488778 C14.3375278,204.432191 13.6413136,210.990956 17.0469438,215.755506 C20.452574,220.520056 26.8835804,221.984388 32.01629,219.164008 L32.01629,219.164008 Z" id="Path" fill="#FFB7B7"></path>
            <path d="M50.63185,124.289628 L26.35893,122.757188 C24.9614362,122.668942 23.6715641,121.976775 22.8254319,120.861053 C21.9792997,119.74533 21.6607167,118.316565 21.9527,116.947068 L27.01034,93.2328179 C27.5155339,85.8775837 33.8779065,80.3184846 41.234428,80.8045748 C48.5909495,81.290665 54.1665532,87.6385789 53.69957,94.9963379 L55.73381,119.079778 C55.851235,120.47513 55.3554851,121.85249 54.3757438,122.852942 C53.3960026,123.853393 52.0293131,124.377843 50.63181,124.289628 L50.63185,124.289628 Z" id="Path" fill="#6C63FF"></path>
            <path d="M90.29736,24.6090279 C89.41378,20.6010279 86.5441,17.2802879 83.23811,14.8482779 C71.9918258,6.57529476 56.4401243,7.52100083 46.27917,17.0957679 C43.5278646,19.5258292 41.5443391,22.7049918 40.57117,26.2444579 C39.6286554,29.8362494 40.5240594,33.6617151 42.96275,36.4620879 L43.41575,36.7458179 C43.00504,35.0036679 44.35837,33.2628179 45.97505,32.4942579 C47.6564532,31.8771579 49.4116402,31.4836209 51.19556,31.3237479 C56.6565518,30.291664 61.402022,26.9430346 64.20476,22.1438379 C66.2813094,28.0502384 70.8104117,32.7701986 76.62612,35.0886379 C79.62278,36.2605279 87.85353,37.8719779 90.70649,36.3841679 C94.34586,34.4864379 91.18095,28.6170879 90.29736,24.6090279 Z" id="Path" fill="#2F2E41"></path>
        </g>
    </g>
</svg>