<?xml version="1.0" encoding="UTF-8"?>
<svg width="282px" height="541px" viewBox="0 0 282 541" version="1.1" xmlns="http://www.w3.org/2000/svg" xmlns:xlink="http://www.w3.org/1999/xlink">
    <title>Group 2</title>
    <g id="Page-1" stroke="none" stroke-width="1" fill="none" fill-rule="evenodd">
        <g id="Group-2" transform="translate(0.090733, 0.321200)" fill-rule="nonzero">
            <g id="Group">
                <path d="M66.461687,68.7825 C66.461687,93.59068 89.400797,89.83836 117.697627,89.83836 C145.994457,89.83836 168.933627,93.59068 168.933627,68.7825 C168.933627,43.97432 157.728447,0 117.697677,0 C76.287757,0 66.461687,43.97432 66.461687,68.7825 Z" id="Path" fill="#2F2E41"></path>
                <polygon id="Path" fill="#A0616A" points="226.905267 521.9548 243.285267 516.6748 230.715267 450.9848 206.540267 458.7778"></polygon>
                <path d="M221.004067,517.9539 L253.260897,507.55615 L253.262207,507.55573 C258.714218,505.798392 264.641035,506.278894 269.738763,508.891524 C274.83649,511.504154 278.687526,516.034889 280.444647,521.48697 L280.659947,522.15497 L227.845947,539.17897 L221.004067,517.9539 Z" id="Path" fill="#2F2E41"></path>
                <polygon id="Path" fill="#A0616A" points="25.846267 522.4968 43.056267 522.4958 51.243267 456.1168 25.843267 456.1178"></polygon>
                <path d="M3.62891699,266.56508 L3.62891699,266.56508 C0.878503019,263.231285 -0.393489602,258.920062 0.106735685,254.627191 C0.606960973,250.33432 2.83614197,246.43107 6.27939699,243.81899 C6.90464008,243.348721 7.56503001,242.927098 8.25475699,242.55783 L64.391057,110.53096 C65.8816916,106.213456 69.5749008,103.028176 74.0645279,102.187889 C78.554155,101.347602 83.149351,102.981607 86.1005357,106.467771 C89.0517203,109.953936 89.9047751,114.75582 88.334907,119.04515 L30.526547,250.4058 C33.5279409,257.662916 30.7681056,266.02383 24.0362554,270.068121 C17.3044053,274.112413 8.62669136,272.622831 3.62891699,266.56508 L3.62891699,266.56508 Z" id="Path" fill="#A0616A"></path>
                <path d="M211.210467,279.8114 C204.541337,275.75452 201.84453,267.428436 204.868697,260.23191 L147.042877,128.8274 C145.492023,124.542828 146.354069,119.755854 149.30217,116.281461 C152.250271,112.807068 156.833047,111.177218 161.312935,112.009868 C165.792824,112.842518 169.483914,116.010182 170.986727,120.31184 L227.140467,252.3839 C227.830197,252.753163 228.490587,253.174786 229.115827,253.64506 C232.559086,256.257137 234.788271,260.160386 235.288498,264.453258 C235.788725,268.74613 234.516733,273.057354 231.766317,276.39115 L231.766317,276.39115 C228.742239,280.051692 224.239377,282.167728 219.491267,282.159603 C216.566091,282.163961 213.69792,281.350636 211.210467,279.8114 Z" id="Path" fill="#A0616A"></path>
                <circle id="Oval" fill="#A0616A" transform="translate(117.868955, 55.319991) rotate(-28.663200) translate(-117.868955, -55.319991) " cx="117.868955" cy="55.3199913" r="34.47692"></circle>
                <path d="M69.312657,201.96908 L62.474307,122.5394 C61.8882137,115.732298 64.4109524,109.02511 69.337773,104.29155 C74.2645937,99.5579908 81.067312,97.3055251 87.845527,98.1634 L151.382217,106.20603 C163.479323,107.710456 172.194356,118.551138 171.064517,130.68896 C168.541517,159.07051 161.501307,208.89725 142.697707,223.74328 L142.410857,223.96946 L69.312657,201.96908 Z" id="Path" fill="#2F2E41"></path>
                <path d="M50.760267,482.33014 L24.401017,479.20603 C21.1804761,478.868527 18.7415694,476.142455 18.763157,472.90435 C18.821077,460.22011 18.788517,447.2288 18.757337,434.66656 C18.487967,327.03078 18.233677,225.36494 68.929177,197.31102 L69.202997,197.16023 L142.936567,222.68223 L145.759437,272.08123 L205.617187,356.88044 C210.567509,363.886878 214.294552,371.681642 216.639987,379.9336 L238.879897,458.05827 C239.353714,459.722935 239.123798,461.509098 238.243857,462.999506 C237.363917,464.489915 235.911024,465.554029 234.224577,465.94327 L208.300227,471.92555 C205.210036,472.635829 202.071631,470.94753 200.961227,467.97755 L166.225227,381.4936 L95.640777,305.4375 C95.0975258,304.874207 94.286673,304.658697 93.535438,304.877939 C92.7842031,305.097182 92.2165507,305.714999 92.061557,306.48207 L57.633577,477.29921 C56.9947654,480.505485 54.009645,482.690449 50.760267,482.33014 L50.760267,482.33014 Z" id="Path" fill="#2F2E41"></path>
                <path d="M157.703777,51.93777 L157.703777,51.93777 L144.067467,51.93777 L138.051607,35.09308 L136.848707,51.93777 L130.331117,51.93777 L126.821807,42.1117 L126.119947,51.93777 L77.691467,51.93777 L77.691467,51.93777 C77.691467,42.258216 81.536651,32.9751106 88.3811293,26.1306323 C95.2256076,19.286154 104.508713,15.44097 114.188267,15.44097 L121.206957,15.44097 C130.886514,15.44097 140.169625,19.2861464 147.014108,26.1306252 C153.85859,32.9751041 157.703777,42.2582125 157.703777,51.93777 Z" id="Path" fill="#2F2E41"></path>
            </g>
            <path d="M21.457017,516.8784 L55.348257,516.87703 L55.349627,516.87703 C61.0778572,516.87703 66.5715266,519.152298 70.6220317,523.202734 C74.6725368,527.253169 76.947997,532.7468 76.947997,538.47503 L76.947997,539.17689 L21.457997,539.17895 L21.457017,516.8784 Z" id="Path" fill="#2F2E41"></path>
        </g>
    </g>
</svg>