<svg height="555" viewBox="0 0 313 555" width="313" xmlns="http://www.w3.org/2000/svg"><g fill="none" transform="translate(.53745 .255332)"><path d="m280.59455 508.523668-18.305 7.627-122.029-166.265-88.4710002 169.316-22.88-4.576 67.116-233.381h77.7930002z" fill="#2f2e41"/><path d="m305.15139 547.310018c-2.049508.558953-4.237319.277207-6.07834-.78277l-38.60279-22.22585c-2.111902-1.215946-3.5376-3.345521-3.857126-5.761418s.503521-4.842891 2.226696-6.566062l3.45008-3.45006 18.30436-1.52536 27.98213 26.86284c2.072002 1.989156 2.914462 4.938749 2.2056 7.722174-.708862 2.783424-2.859553 4.970744-5.63061 5.726506z" fill="#2f2e41"/><path d="m5.8775298 553.411468c2.04950913.55895 4.2373198.2772 6.07834-.78278l38.60279-22.22585c2.111902-1.215946 3.5375999-3.345521 3.8571259-5.761418s-.5035209-4.842891-2.2266959-6.566062l-3.45008-3.45006-18.30436-1.52536-27.98213 26.86284c-2.07200715 1.989155-2.91447084 4.938752-2.20560869 7.72218.70886216 2.783428 2.85955725 4.97075 5.63061869 5.72651z" fill="#2f2e41"/><g fill="#ffb9b9"><path d="m44.1629798 38.7119476-7.62682 4.57609-15.80509-25.68327c-1.9698895-3.2010749-2.259103-7.1604411-.7752888-10.61379313 1.4838141-3.45335204 4.5550868-5.96880608 8.2330988-6.74312689 3.2602283-.68636542 6.658041.06842932 9.3210369 2.07058787 2.662996 2.00215855 4.3317864 5.05666084 4.5779031 8.37925215z"/><path d="m255.43579 238.669098 3.16427-8.31241 28.30256 10.41136c3.527533 1.297633 6.203115 4.230462 7.172378 7.861973.969263 3.63151.110989 7.507538-2.300758 10.390387-2.137799 2.555386-5.27487 4.063239-8.605759 4.136414-3.33089.073175-6.531153-1.295457-8.779111-3.754494z"/><circle cx="135.68474" cy="107.353308" r="22.88045"/><path d="m155.51455 156.164668h-32.033v-35.083l27.457-3.051z"/></g><path d="m178.39491 290.396898h-86.9457102c3.06581-48.51189 5.4936-95.39321 0-122.02906l5.05559-24.26683c1.4525287-6.972147 8.0139112-11.661559 15.0807602-10.7782l11.89628 1.487c8.05639 14.16347 17.79287 14.02685 28.98191 1.52537h14.32935c3.859211.000001 7.556115 1.552792 10.257842 4.308548 2.701726 2.755755 4.181021 6.482677 4.104618 10.341132 3.732957 17.091787 4.974683 34.633571 3.68663 52.08078z" fill="#3f3d56"/><path d="m31.9595498 38.7116676 12.203-6.101 65.5910002 108.3010004-18.3040002 27.456z" fill="#3f3d56"/><path d="m255.60898 243.009158 10.42855-8.79682-55.413-77.64818c-11.067224-15.508106-30.105209-23.215989-48.84414-19.77546l-1.74815.321 20.95313 36.66813 27.59739 20.89445z" fill="#3f3d56"/><path d="m162.14598 93.8465576s4.27546-9.406-6.84076-13.6815c0 0-9.406-15.39169-28.21809-5.13056 0 0-12.82641 5.13056-12.82641 18.81206 0 13.6815004-4.27547 16.2467804-4.27547 16.2467804s6.36692-6.53187 8.07711-11.6624304c1.71019-5.13056 15.01043-6.29454 20.141-1.164 5.13057 5.1305404 17.957 4.2754604 17.957 4.2754604l-.8551 18.81207s4.27547-11.11622 5.98566-11.11622 3.42035-15.3916604.85506-15.3916604z" fill="#2f2e41"/></g></svg>